<svg version="1.2" xmlns="http://www.w3.org/2000/svg" viewBox="0 0 50 50" width="50" height="50">
	<title>favicon-svg</title>
	<defs>
		<clipPath clipPathUnits="userSpaceOnUse" id="cp1">
			<path d="m0 10c0-5.52 4.48-10 10-10h30c5.52 0 10 4.48 10 10v30c0 5.52-4.48 10-10 10h-30c-5.52 0-10-4.48-10-10z"/>
		</clipPath>
	</defs>
	<style>
		.s0 { fill: #6a00ff } 
		.s1 { fill: #ffffff } 
	</style>
	<g id="Clip-Path" clip-path="url(#cp1)">
		<g id="Layer">
			<path id="Layer" class="s0" d="m0 10c0-5.5 4.5-10 10-10h30c5.5 0 10 4.5 10 10v30c0 5.5-4.5 10-10 10h-30c-5.5 0-10-4.5-10-10z"/>
			<path id="K" class="s1" aria-label="K"  d="m13 37.4c0 2.2 1.8 3.9 3.9 3.9 2.3 0 4-1.7 4-3.9v-4.6l3.5-4.3 6.9 11c0.7 1.1 2 1.8 3.4 1.8 2.2 0 4-1.7 4-4 0-0.8-0.3-1.5-0.7-2.1l-8.2-12.8 6.5-8c0.4-0.5 0.7-1.3 0.7-2.1 0-1.8-1.5-3.3-3.3-3.3-1.1 0-2.1 0.5-2.7 1.3l-10.1 12.9v-10.3c0-2.2-1.7-3.9-4-3.9-2.1 0-3.9 1.7-3.9 3.9z"/>
		</g>
	</g>
</svg>